<?xml version="1.0" encoding="UTF-8" standalone="no"?>
<svg
   xmlns:dc="http://purl.org/dc/elements/1.1/"
   xmlns:cc="http://creativecommons.org/ns#"
   xmlns:rdf="http://www.w3.org/1999/02/22-rdf-syntax-ns#"
   xmlns:svg="http://www.w3.org/2000/svg"
   xmlns="http://www.w3.org/2000/svg"
   xmlns:sodipodi="http://sodipodi.sourceforge.net/DTD/sodipodi-0.dtd"
   xmlns:inkscape="http://www.inkscape.org/namespaces/inkscape"
   viewBox="0 0 99.827452 99.827452"
   height="99.827446"
   width="99.827446"
   xml:space="preserve"
   version="1.1"
   id="svg2"
   inkscape:version="0.91 r13725"
   sodipodi:docname="cv.svg"><sodipodi:namedview
     pagecolor="#ffffff"
     bordercolor="#666666"
     borderopacity="1"
     objecttolerance="10"
     gridtolerance="10"
     guidetolerance="10"
     inkscape:pageopacity="0"
     inkscape:pageshadow="2"
     inkscape:window-width="1280"
     inkscape:window-height="961"
     id="namedview4315"
     showgrid="false"
     fit-margin-top="0"
     fit-margin-left="0"
     fit-margin-right="0"
     fit-margin-bottom="0"
     inkscape:zoom="4.3592411"
     inkscape:cx="72.947721"
     inkscape:cy="34.588169"
     inkscape:window-x="-8"
     inkscape:window-y="-8"
     inkscape:window-maximized="1"
     inkscape:current-layer="svg2" /><metadata
     id="metadata8"><rdf:RDF><cc:Work
         rdf:about=""><dc:format>image/svg+xml</dc:format><dc:type
           rdf:resource="http://purl.org/dc/dcmitype/StillImage" /><dc:title></dc:title></cc:Work></rdf:RDF></metadata><defs
     id="defs6"><clipPath
       id="clipPath18"
       clipPathUnits="userSpaceOnUse"><path
         id="path20"
         d="M 0,980 1400,980 1400,0 0,0 0,980 Z"
         inkscape:connector-curvature="0" /></clipPath></defs><g
     transform="matrix(1.0985375,0,0,-1.0985375,-80.733608,984.84766)"
     id="g10"><path
       inkscape:connector-curvature="0"
       d="m 164.36495,851.07148 c 0,-25.09393 -20.3426,-45.43653 -45.43653,-45.43653 -25.093936,0 -45.43652,20.3426 -45.43652,45.43653 0,25.09393 20.342584,45.43652 45.43652,45.43652 25.09393,0 45.43653,-20.34259 45.43653,-45.43652"
       style="fill:#53b4e6;fill-opacity:1;fill-rule:nonzero;stroke:none"
       id="path24" /><path
       inkscape:connector-curvature="0"
       d="m 144.65623,817.15702 -39.71954,0 -9.389546,9.85123 0,58.9603 49.109086,0 0,-68.81153 z"
       style="fill:#d5d6d8;fill-opacity:1;fill-rule:nonzero;stroke:none"
       id="path48" /><path
       id="path50"
       style="fill:#0074bb;fill-opacity:1;fill-rule:nonzero;stroke:none"
       d="m 116.67084,857.59114 -16.859701,0 0,23.23125 16.859701,0 0,-23.23125 z"
       inkscape:connector-curvature="0" /><path
       id="path52"
       style="fill:#53b4e6;fill-opacity:1;fill-rule:nonzero;stroke:none"
       d="m 140.39229,874.49997 -20.29058,0 0,6.32242 20.29058,0 0,-6.32242 z"
       inkscape:connector-curvature="0" /><path
       inkscape:connector-curvature="0"
       d="m 114.68047,863.69302 c -0.17966,2.1711 -2.99388,3.89638 -6.43945,3.89638 -3.44558,0 -6.2598,-1.72528 -6.43946,-3.89638 l -0.009,0 0,-6.10188 12.89776,0 0,6.10188 -0.009,0 z"
       style="fill:#f89b34;fill-opacity:1;fill-rule:nonzero;stroke:none"
       id="path56" /><path
       inkscape:connector-curvature="0"
       d="m 112.35794,872.29446 c 0,-2.27371 -1.8432,-4.11693 -4.11692,-4.11693 -2.27371,0 -4.11693,1.84322 -4.11693,4.11693 0,2.27373 1.84322,4.11694 4.11693,4.11694 2.27372,0 4.11692,-1.84321 4.11692,-4.11694"
       style="fill:#ffdcb5;fill-opacity:1;fill-rule:nonzero;stroke:none"
       id="path60" /><path
       inkscape:connector-curvature="0"
       d="m 112.35794,872.29446 c 0,2.27373 -1.8432,4.11694 -4.11692,4.11694 -2.27371,0 -4.11693,-1.84321 -4.11693,-4.11694 0,0 5.44405,0.51463 5.6646,2.27903 l 2.56925,-2.27903 z"
       style="fill:#7c6d5d;fill-opacity:1;fill-rule:nonzero;stroke:none"
       id="path64" /><path
       inkscape:connector-curvature="0"
       d="m 104.8494,866.97424 c 0,0 2.99595,1.49357 6.99467,-0.0877 l -3.59261,-8.16798 -3.40206,8.25561 z"
       style="fill:#d5d6d8;fill-opacity:1;fill-rule:nonzero;stroke:none"
       id="path68" /><path
       inkscape:connector-curvature="0"
       d="m 122.75702,869.25054 -0.21055,0 c -0.50786,0 -0.94102,0.17557 -1.29919,0.52697 -0.35846,0.35114 -0.53727,0.77164 -0.53727,1.26126 0,0.48786 0.17881,0.90661 0.53727,1.25685 0.35817,0.35023 0.79133,0.52549 1.29919,0.52549 l 0.21055,0 0,-0.45785 c -0.0923,0.007 -0.16263,0.0121 -0.21055,0.0121 -0.37142,0 -0.68812,-0.12938 -0.95013,-0.38874 -0.26173,-0.25937 -0.39288,-0.57432 -0.39288,-0.94484 0,-0.38053 0.13557,-0.69783 0.40671,-0.95219 0.27081,-0.25437 0.60607,-0.38142 1.0054,-0.38142 l 0.14145,0 0,-0.45755 z m 0.11145,-0.7769 -2.40546,0 0,0.47579 2.40546,0 0,-0.47579 z"
       style="fill:#0074bb;fill-opacity:1;fill-rule:nonzero;stroke:none"
       id="path72" /><path
       inkscape:connector-curvature="0"
       d="m 124.96983,870.21992 c 0,-0.26289 -0.10147,-0.49022 -0.30406,-0.68195 -0.20261,-0.19172 -0.44139,-0.28729 -0.71634,-0.28729 -0.27702,0 -0.51697,0.0956 -0.71959,0.28729 -0.20261,0.19173 -0.30406,0.41906 -0.30406,0.68195 l 0,2.56514 0.47875,0 0,-2.52308 c 0,-0.16262 0.0515,-0.29761 0.15498,-0.40493 0.10321,-0.10726 0.23317,-0.16087 0.38992,-0.16087 0.15438,0 0.28348,0.0535 0.38668,0.16087 0.10355,0.10726 0.15528,0.24231 0.15528,0.40493 l 0,2.52308 0.47844,0 0,-2.56514 z m 0.34641,-1.74617 -2.71276,0 0,0.47579 2.71276,0 0,-0.47579 z"
       style="fill:#0074bb;fill-opacity:1;fill-rule:nonzero;stroke:none"
       id="path76" /><path
       inkscape:connector-curvature="0"
       d="m 126.3276,871.6499 c 0,0.14644 -0.0426,0.27966 -0.12791,0.39876 -0.0853,0.11968 -0.19702,0.20438 -0.33583,0.25466 l 0,-1.30684 c 0.13881,0.0483 0.25054,0.13204 0.33583,0.25144 0.0853,0.11969 0.12791,0.25349 0.12791,0.40198 m 0.72252,-2.36341 -0.53873,0 -0.64753,1.11716 0,-1.11716 -0.47844,0 0,3.49851 0.24083,0 c 0.32495,0 0.60343,-0.11205 0.83544,-0.33582 0.23173,-0.22379 0.34759,-0.49022 0.34759,-0.79928 0,-0.41552 -0.18968,-0.73869 -0.56902,-0.96924 l 0.80986,-1.39417 z m 0.0302,-0.81281 -2.03523,0 0,0.47581 2.03523,0 0,-0.47581 z"
       style="fill:#0074bb;fill-opacity:1;fill-rule:nonzero;stroke:none"
       id="path80" /><path
       id="path82"
       style="fill:#0074bb;fill-opacity:1;fill-rule:nonzero;stroke:none"
       d="m 127.64011,869.28645 -0.47845,0 0,3.49822 0.47845,0 0,-3.49822 z m 0.35229,-0.81279 -1.17127,0 0,0.47579 1.17127,0 0,-0.47579 z"
       inkscape:connector-curvature="0" /><path
       inkscape:connector-curvature="0"
       d="m 130.02754,869.25054 -0.21054,0 c -0.50786,0 -0.94102,0.17557 -1.29921,0.52697 -0.35844,0.35114 -0.53723,0.77164 -0.53723,1.26126 0,0.48786 0.17879,0.90661 0.53723,1.25685 0.35819,0.35023 0.79135,0.52549 1.29921,0.52549 l 0.21054,0 0,-0.45785 c -0.0923,0.007 -0.16261,0.0121 -0.21054,0.0121 -0.37143,0 -0.68812,-0.12938 -0.95014,-0.38874 -0.26173,-0.25937 -0.39286,-0.57432 -0.39286,-0.94484 0,-0.38053 0.13555,-0.69783 0.40667,-0.95219 0.27085,-0.25437 0.60608,-0.38142 1.00543,-0.38142 l 0.14144,0 0,-0.45755 z m 0.11145,-0.7769 -2.40545,0 0,0.47579 2.40545,0 0,-0.47579 z"
       style="fill:#0074bb;fill-opacity:1;fill-rule:nonzero;stroke:none"
       id="path86" /><path
       inkscape:connector-curvature="0"
       d="m 132.24036,870.21992 c 0,-0.26289 -0.10136,-0.49022 -0.30406,-0.68195 -0.20261,-0.19172 -0.44139,-0.28729 -0.71636,-0.28729 -0.277,0 -0.51695,0.0956 -0.71957,0.28729 -0.20261,0.19173 -0.30405,0.41906 -0.30405,0.68195 l 0,2.56514 0.47873,0 0,-2.52308 c 0,-0.16262 0.0516,-0.29761 0.15496,-0.40493 0.10322,-0.10726 0.23319,-0.16087 0.38993,-0.16087 0.15439,0 0.2835,0.0535 0.3867,0.16087 0.10354,0.10726 0.15527,0.24231 0.15527,0.40493 l 0,2.52308 0.47845,0 0,-2.56514 z m 0.3464,-1.74617 -2.71276,0 0,0.47579 2.71276,0 0,-0.47579 z"
       style="fill:#0074bb;fill-opacity:1;fill-rule:nonzero;stroke:none"
       id="path90" /><path
       inkscape:connector-curvature="0"
       d="m 133.75779,869.28661 -1.10186,0 0,3.49821 0.47845,0 0,-3.05271 0.62341,0 0,-0.4455 z m 0.1294,-0.8128 -1.57149,0 0,0.4758 1.57149,0 0,-0.4758 z"
       style="fill:#0074bb;fill-opacity:1;fill-rule:nonzero;stroke:none"
       id="path94" /><path
       inkscape:connector-curvature="0"
       d="m 136.00061,870.21992 c 0,-0.26289 -0.10136,-0.49022 -0.30406,-0.68195 -0.2026,-0.19172 -0.44138,-0.28729 -0.71634,-0.28729 -0.27701,0 -0.51697,0.0956 -0.7196,0.28729 -0.2026,0.19173 -0.30406,0.41906 -0.30406,0.68195 l 0,2.56514 0.47875,0 0,-2.52308 c 0,-0.16262 0.0515,-0.29761 0.15498,-0.40493 0.10322,-0.10726 0.2332,-0.16087 0.38993,-0.16087 0.15438,0 0.28348,0.0535 0.38669,0.16087 0.10355,0.10726 0.15527,0.24231 0.15527,0.40493 l 0,2.52308 0.47844,0 0,-2.56514 z m 0.34642,-1.74617 -2.71277,0 0,0.47579 2.71277,0 0,-0.47579 z"
       style="fill:#0074bb;fill-opacity:1;fill-rule:nonzero;stroke:none"
       id="path98" /><path
       inkscape:connector-curvature="0"
       d="m 139.80914,869.28056 -0.48788,0 -0.56576,2.24607 -0.77692,-2.30636 -0.77664,2.30636 -0.56314,-2.24607 -0.48463,0 1.03571,3.62788 0.7887,-2.4628 0.78897,2.4628 1.04159,-3.62788 z m 0.0632,-0.80692 -3.79347,0 0,0.47579 3.79347,0 0,-0.47579 z"
       style="fill:#0074bb;fill-opacity:1;fill-rule:nonzero;stroke:none"
       id="path102" /><path
       inkscape:connector-curvature="0"
       d="m 126.88026,867.93887 -1.48709,-4.31718 -1.10187,0 -1.46915,4.31718 1.04746,0 0.90015,-3.00447 c 0.0483,-0.16292 0.0774,-0.30613 0.0874,-0.43081 l 0.0183,0 c 0.0139,0.13468 0.0451,0.28201 0.0933,0.44286 l 0.89425,2.99242 1.01747,0 z"
       style="fill:#0074bb;fill-opacity:1;fill-rule:nonzero;stroke:none"
       id="path106" /><path
       inkscape:connector-curvature="0"
       d="m 128.73182,867.93887 0,-0.75279 -0.3614,0 0,-2.81189 0.3614,0 0,-0.7525 -1.69499,0 0,0.7525 0.3614,0 0,2.81189 -0.3614,0 0,0.75279 1.69499,0 z"
       style="fill:#0074bb;fill-opacity:1;fill-rule:nonzero;stroke:none"
       id="path110" /><path
       inkscape:connector-curvature="0"
       d="m 132.38367,867.14701 -1.23125,0 0,-3.52527 -0.97543,0 0,3.52527 -1.22537,0 0,0.79192 3.43205,0 0,-0.79192 z"
       style="fill:#0074bb;fill-opacity:1;fill-rule:nonzero;stroke:none"
       id="path114" /><path
       inkscape:connector-curvature="0"
       d="m 135.17141,865.32862 -0.46344,1.45121 c -0.0341,0.10814 -0.0581,0.23791 -0.0724,0.38817 l -0.0241,0 c -0.01,-0.12615 -0.035,-0.25171 -0.0753,-0.3761 l -0.46963,-1.46328 1.10481,0 z m 1.58972,-1.70705 -1.05981,0 -0.307,0.96043 -1.53533,0 -0.30436,-0.96043 -1.05364,0 1.5715,4.31718 1.15333,0 1.53531,-4.31718 z"
       style="fill:#0074bb;fill-opacity:1;fill-rule:nonzero;stroke:none"
       id="path118" /><path
       inkscape:connector-curvature="0"
       d="m 139.88912,863.62166 -2.58895,0 0,4.31719 2.48955,0 0,-0.79193 -1.51738,0 0,-0.96012 1.41211,0 0,-0.78869 -1.41211,0 0,-0.98776 1.61678,0 0,-0.78869 z"
       style="fill:#0074bb;fill-opacity:1;fill-rule:nonzero;stroke:none"
       id="path122" /><path
       inkscape:connector-curvature="0"
       d="m 95.547144,827.00835 9.389546,-9.85123 -0.0244,9.85123 -9.36514,0 z"
       style="fill:#b4b6b8;fill-opacity:1;fill-rule:nonzero;stroke:none"
       id="path126" /><path
       id="path128"
       style="fill:#2e5173;fill-opacity:1;fill-rule:nonzero;stroke:none"
       d="m 140.39229,852.053 -38.60003,0 0,1.12715 38.60003,0 0,-1.12715 z"
       inkscape:connector-curvature="0" /><path
       id="path130"
       style="fill:#2e5173;fill-opacity:1;fill-rule:nonzero;stroke:none"
       d="m 140.39229,848.62212 -38.60003,0 0,1.12717 38.60003,0 0,-1.12717 z"
       inkscape:connector-curvature="0" /><path
       id="path132"
       style="fill:#2e5173;fill-opacity:1;fill-rule:nonzero;stroke:none"
       d="m 140.39229,845.33829 -38.60003,0 0,1.12716 38.60003,0 0,-1.12716 z"
       inkscape:connector-curvature="0" /><path
       id="path134"
       style="fill:#2e5173;fill-opacity:1;fill-rule:nonzero;stroke:none"
       d="m 140.39229,841.56453 -38.60003,0 0,1.12717 38.60003,0 0,-1.12717 z"
       inkscape:connector-curvature="0" /><path
       id="path136"
       style="fill:#2e5173;fill-opacity:1;fill-rule:nonzero;stroke:none"
       d="m 140.39229,838.13365 -38.60003,0 0,1.12717 38.60003,0 0,-1.12717 z"
       inkscape:connector-curvature="0" /><path
       id="path138"
       style="fill:#2e5173;fill-opacity:1;fill-rule:nonzero;stroke:none"
       d="m 140.39229,834.85011 -38.60003,0 0,1.12717 38.60003,0 0,-1.12717 z"
       inkscape:connector-curvature="0" /><path
       id="path140"
       style="fill:#2e5173;fill-opacity:1;fill-rule:nonzero;stroke:none"
       d="m 140.39229,823.47946 -12.8204,0 0,1.12714 12.8204,0 0,-1.12714 z"
       inkscape:connector-curvature="0" /></g></svg>