<?xml version="1.0" encoding="UTF-8" standalone="no"?>
<svg
   xmlns:dc="http://purl.org/dc/elements/1.1/"
   xmlns:cc="http://creativecommons.org/ns#"
   xmlns:rdf="http://www.w3.org/1999/02/22-rdf-syntax-ns#"
   xmlns:svg="http://www.w3.org/2000/svg"
   xmlns="http://www.w3.org/2000/svg"
   xmlns:sodipodi="http://sodipodi.sourceforge.net/DTD/sodipodi-0.dtd"
   xmlns:inkscape="http://www.inkscape.org/namespaces/inkscape"
   width="130.16786pt"
   height="78.298676pt"
   viewBox="0 0 130.16787 78.298676"
   version="1.1"
   id="svg3382"
   inkscape:version="0.91 r13725"
   sodipodi:docname="DeSoCoRe.svg">
  <metadata
     id="metadata3576">
    <rdf:RDF>
      <cc:Work
         rdf:about="">
        <dc:format>image/svg+xml</dc:format>
        <dc:type
           rdf:resource="http://purl.org/dc/dcmitype/StillImage" />
        <dc:title></dc:title>
      </cc:Work>
    </rdf:RDF>
  </metadata>
  <defs
     id="defs3574" />
  <sodipodi:namedview
     pagecolor="#ffffff"
     bordercolor="#666666"
     borderopacity="1"
     objecttolerance="10"
     gridtolerance="10"
     guidetolerance="10"
     inkscape:pageopacity="0"
     inkscape:pageshadow="2"
     inkscape:window-width="1280"
     inkscape:window-height="961"
     id="namedview3572"
     showgrid="false"
     fit-margin-top="0"
     fit-margin-left="0"
     fit-margin-right="0"
     fit-margin-bottom="0"
     inkscape:zoom="0.78071205"
     inkscape:cx="316.02326"
     inkscape:cy="-153.55366"
     inkscape:window-x="-8"
     inkscape:window-y="-8"
     inkscape:window-maximized="1"
     inkscape:current-layer="svg3382" />
  <path
     d="m 4.702631,0.03616751 c 1.6414336,-0.04507777 3.2865639,-0.0563472 4.9279968,0.01502592 0,0.25168416 0,0.76256547 0,1.01424957 -1.6377361,0.041322 -3.2791693,0.026295 -4.9169059,0.01127 -0.00369,-0.25919709 -0.0074,-0.77759144 -0.011089,-1.04054504 z"
     id="path3386"
     inkscape:connector-curvature="0"
     style="fill:#0147c1" />
  <path
     d="m 3.1018636,1.6026197 c 2.188578,0.041322 4.3734586,-0.2441711 6.5583395,-0.052591 0,0.2291453 -0.00372,0.6874359 -0.00372,0.9165811 -1.2421655,0.1202074 -2.4954217,0.1277203 -3.7449812,0.1277203 -0.9279274,0 -1.859552,-0.01127 -2.7874791,-0.033808 -0.00741,-0.240415 -0.014802,-0.7212445 -0.022195,-0.9579028 z"
     id="path3388"
     inkscape:connector-curvature="0"
     style="fill:#0147c1" />
  <path
     d="m 5.9115246,2.5943305 c 1.2495596,0 2.5028157,-0.00751 3.7449811,-0.1277204 L 10.455041,2.3839677 C 11.832369,11.670014 9.6528499,8.344185 7.9596185,8.6234822 7.7451973,7.6317703 7.5196856,6.6438161 7.2978705,5.6521052 8.0705263,5.6596157 8.8394861,5.6671314 9.6084463,5.6708875 9.6010136,5.4192033 9.5788709,4.9120785 9.5714814,4.6566379 8.5289457,4.5852648 7.4901104,4.4988659 6.4660628,4.2960159 7.5012007,4.1833214 8.5400355,4.1495132 9.5788701,4.1269743 9.5640824,3.7776217 9.5529912,3.4282691 9.534508,3.0826729 8.3330081,3.0789164 7.1278118,3.0451081 5.9263122,3.0150563 Z"
     id="path3390"
     inkscape:connector-curvature="0"
     style="fill:#ababab"
     sodipodi:nodetypes="cccccccccccc" />
  <path
     d="M 4.0223977,4.1382437 C 3.8597329,2.8685535 5.0464447,2.9812479 5.9263122,3.0150563 c 1.2014996,0.030051 2.4066959,0.06386 3.6081958,0.067616 0.018478,0.3455962 0.029584,0.6949488 0.044354,1.0443014 -1.0388348,0.022538 -2.0776697,0.056347 -3.1128076,0.1690416 1.0240475,0.20285 2.0628823,0.2892489 3.1054138,0.3606221 0.00735,0.2554406 0.029575,0.7625654 0.036974,1.0142496 C 8.839482,5.667137 8.070522,5.659617 7.2978662,5.652105 9.3703159,9.9177539 9.2258617,12.71837 9.9078919,18.70963 c 0.5841131,5.386792 0.8613821,10.852471 0.2624821,16.246775 -0.06284,1.671635 -0.2070271,3.343269 -0.5138732,4.992364 -0.2513903,1.656607 -0.3733881,3.328241 -0.4621149,4.999875 1.9963381,0.379403 4.0407361,0.409456 6.0592551,0.229145 l 0.39557,-0.03757 c -0.02219,2.49806 -0.04806,4.999874 0.01848,7.497935 -0.114604,1.776815 1.67101,2.599483 2.828146,3.534847 1.020351,0.725 2.029611,1.457515 3.03887,2.19754 0.544109,0.342532 2.295697,1.913082 3.353108,2.231349 0.924231,0.68368 1.892824,1.311011 2.887297,1.885753 l 0.160542,0.142799 c 4.983225,2.305954 11.096035,6.166071 16.579121,8.455781 2.022217,1.048063 4.484368,1.029277 6.602704,0.360624 -0.772657,-0.09767 -1.54901,-0.120204 -2.321668,-0.150258 -0.0037,-0.251686 -0.01479,-0.751295 -0.01848,-0.999222 0.939017,-0.03378 1.878035,-0.04884 2.82075,-0.06008 3.589711,-6.85933 7.892929,-13.327988 12.832017,-19.255713 2.938522,-3.828793 4.969563,-6.548822 6.554642,-7.257519 0.975984,-0.627333 1.64513,-1.626557 2.58415,-2.302723 0.25139,-0.01503 0.750472,-0.05259 0.998168,-0.07137 -7.275416,6.008584 -14.587836,15.458801 -22.222196,28.819711 0.532353,0.06386 1.064711,0.131478 1.597071,0.202853 l -0.11461,0.202847 c -0.07763,0.142751 -0.240296,0.424486 -0.317934,0.563476 -0.78005,0.191578 -1.5601,0.353109 -2.336453,0.540928 0.831809,0.08265 1.671007,0.150265 2.506511,0.210366 0.01481,0.217874 0.04069,0.649873 0.05543,0.863991 -1.083201,0.06008 -2.166396,0.142745 -3.238504,0.277981 -0.987077,0.07136 -2.014822,0.262955 -2.961234,-0.123963 -10.018703,-4.304814 -17.457801,-7.652272 -23.456967,-11.91932 -4.771744,-3.484456 0,0 -5.471445,-3.910495 -0.876171,-0.679922 -1.77822,-1.32228 -2.683966,-1.964638 -0.136786,0.623575 -0.273571,1.250907 -0.410359,1.874483 C -4.863294,62.764073 1.0509064,51.258455 0.13322413,40.185449 0.10364665,39.612946 0.27001044,38.75423 0.95394087,38.746717 3.7007539,38.61524 6.451264,38.727936 9.2017726,38.686615 9.8709156,33.480133 10.170367,28.194766 9.6454033,22.958233 8.4697718,13.688147 8.6248653,13.602604 6.6065345,5.6145638 c -0.4547217,0.015026 -0.9057459,0.033809 -1.3567703,0.045079 -0.8983521,0.033809 -1.7930072,0.015026 -2.6913594,0 0.04806,-0.2554412 0.14418,-0.770079 0.1959371,-1.0255197 1.2495598,-0.1239643 2.524998,0.041321 3.7560729,-0.262954 C 5.6860125,4.2396687 4.8542047,4.1945909 4.0223977,4.1382437 Z"
     id="path3392"
     inkscape:connector-curvature="0"
     style="fill:#0147c1"
     sodipodi:nodetypes="cccccccccccccccccccccccccccccccccccccccccccccccccccc" />
  <path
     d="M 5.2497756,5.6596181 C 5.7008,5.6483485 6.1518242,5.6295666 6.6065457,5.6145402 6.935572,6.7114327 7.2830824,7.8195944 7.323749,8.9765904 7.157387,8.9052173 6.8172703,8.7587149 6.650909,8.68734 6.2960042,8.5370825 5.9411003,8.3868236 5.5861956,8.2403208 5.5935899,7.7745168 5.6046785,7.3087131 5.6194673,6.8466659 5.482681,6.9631172 5.2128062,7.1997753 5.0760198,7.3199828 5.1351688,6.7640235 5.1906242,6.211821 5.249775,5.6596179 Z"
     id="path3394"
     inkscape:connector-curvature="0"
     style="fill:#ababab" />
  <path
     d="m 112.13519,36.432703 c -0.0111,-0.450779 0.27727,-1.126945 0.80963,-1.074354 2.7468,-0.11645 5.49732,-0.01878 8.24782,-0.05259 0.0221,2.107385 0.0739,4.211015 0.10722,6.314644 2.0444,0.247928 4.11836,0.353109 6.16647,0.09767 l 0.2292,-0.03005 c -0.0555,4.064511 0.34752,8.132779 -0.0887,12.189777 l -0.45843,-0.04132 c -3.33461,-0.120208 -6.67294,-0.09015 -10.00757,0 -0.66174,0.01878 -1.3198,0.02629 -1.97784,0.03005 -0.45844,-0.02254 -0.91316,-0.04883 -1.36788,-0.07512 -0.75417,0.07512 -1.79299,-0.187825 -1.671,-1.175779 -0.0296,-3.474743 -0.0258,-6.949488 -0.0258,-10.424231 0,-0.165285 0,-0.488342 0,-0.649871 0.0258,-1.701686 -0.0296,-3.407128 0.0369,-5.108814 z"
     id="path3416"
     inkscape:connector-curvature="0"
     style="fill:#e07100" />
  <path
     d="m 121.19264,35.305758 c 0.17376,0.450778 0.35492,0.901556 0.53607,1.348576 0.28835,-0.315543 0.60629,-0.623574 0.90943,-0.935362 -0.11461,1.615286 -0.17744,3.234329 -0.19963,4.857129 1.51574,0.02255 3.02778,-0.01127 4.53983,-0.04507 0.73568,0.135233 0.89834,0.529664 0.48799,1.187047 -2.04811,0.255441 -4.12207,0.15026 -6.16647,-0.09767 -0.0333,-2.103628 -0.085,-4.207259 -0.10722,-6.314644 z"
     id="path3418"
     inkscape:connector-curvature="0"
     style="fill:#ababab" />
  <path
     d="m 73.494959,35.733997 c 1.674701,-0.05635 3.353108,-0.0601 5.027809,-0.01503 -0.0038,0.26671 -0.01111,0.803887 -0.01484,1.070597 -1.656217,0.01503 -3.316139,0.01878 -4.972359,-0.01503 -0.01112,-0.259198 -0.02957,-0.781347 -0.04069,-1.040545 z"
     id="path3420"
     inkscape:connector-curvature="0"
     style="fill:#e07100" />
  <path
     d="m 122.43851,40.576101 c 0.0221,-1.6228 0.085,-3.241843 0.19963,-4.857129 1.57858,1.626556 3.20524,3.204278 4.8171,4.800782 l -0.4769,0.01127 c -1.51205,0.0338 -3.02409,0.06762 -4.53983,0.04507 z"
     id="path3422"
     inkscape:connector-curvature="0"
     style="fill:#e07100" />
  <path
     d="m 73.509741,37.270398 c 2.195971,-0.06761 4.421523,-0.323058 6.606402,0.03757 0.02588,0.202849 0.08134,0.608551 0.110913,0.811401 -1.186721,0.281735 -2.414102,0.293005 -3.62299,0.274222 -1.035139,-0.02254 -2.062879,-0.09016 -3.090625,-0.131477 -0.0035,-0.247927 -0.0035,-0.743783 -0.0035,-0.991711 z"
     id="path3424"
     inkscape:connector-curvature="0"
     style="fill:#e07100" />
  <path
     d="m 80.227056,38.119363 c 0.916832,-0.217876 1.859544,-0.285493 2.802264,-0.27798 9.793142,-0.289249 19.68612,0.762566 29.06889,3.700133 0,0.161529 0,0.484586 0,0.649872 -9.7118,-2.975132 -19.919007,-4.113346 -30.04488,-3.64003 -1.005562,0.03005 -2.007433,0.09767 -3.012995,0.131477 -0.820719,0.02629 -1.645129,0.02255 -2.46215,0.0037 l 0.02588,-0.293005 c 1.208889,0.01878 2.436269,0.0075 3.62299,-0.274223 z"
     id="path3426"
     inkscape:connector-curvature="0"
     style="fill:#0147c1" />
  <path
     d="m 73.531924,38.754208 c 1.012958,-0.07512 2.029615,-0.105181 3.046261,-0.06762 0.817021,0.01878 1.641431,0.02255 2.46215,-0.0037 0.01112,0.289249 0.0296,0.871503 0.04072,1.164509 -1.038832,0.0075 -2.08137,0.0338 -3.1202,0.03005 -0.247692,0.0075 -0.74308,0.02254 -0.99077,0.03005 -0.491694,-0.01503 -0.983386,-0.04507 -1.471378,-0.0864 0.0073,-0.26671 0.02588,-0.800131 0.03326,-1.06684 z"
     id="path3428"
     inkscape:connector-curvature="0"
     style="fill:#e07100" />
  <path
     d="m 79.040335,38.682835 c 1.005562,-0.0338 2.007433,-0.101425 3.012995,-0.131477 0.51017,0.477073 1.046228,0.935363 1.500953,1.47254 -0.635869,1.145727 -1.419619,2.242619 -2.388205,3.121636 -0.920545,0.413212 -1.911321,0.66114 -2.794882,1.168265 -0.88726,-0.386918 -1.833678,-0.195338 -2.632207,0.304274 -0.262483,-0.120207 -0.794841,-0.356864 -1.061015,-0.477073 0.07024,-0.931607 -0.136787,-1.957126 0.317934,-2.806091 1.855858,-0.0338 3.711703,0.04508 5.567563,0 -0.0076,-0.270466 -0.02214,-0.807643 -0.0296,-1.074352 -1.523129,-0.01127 -3.046265,-0.05259 -4.569399,-0.07512 l -0.0038,-0.30803 c 1.038845,0.0037 2.081368,-0.02255 3.1202,-0.03005 -0.01104,-0.293006 -0.0296,-0.87526 -0.04072,-1.164509 z"
     id="path3430"
     inkscape:connector-curvature="0"
     style="fill:#ababab" />
  <path
     d="M 9.6565057,39.948769 C 10.007713,39.580634 10.362619,39.216256 10.713825,38.84812 l -0.03327,0.33057 c -0.166361,1.607773 -0.2403,3.226817 -0.269875,4.845859 1.634039,-0.04507 3.268078,-0.06385 4.902118,-0.112693 -0.01849,0.420725 -0.03697,0.845207 -0.05915,1.265933 -2.018519,0.180311 -4.062916,0.150258 -6.0592539,-0.229145 0.088727,-1.671634 0.2107238,-3.343268 0.4621149,-4.999875 z"
     id="path3432"
     inkscape:connector-curvature="0"
     style="fill:#ababab" />
  <path
     d="m 10.410677,44.024549 c 0.02958,-1.619042 0.103515,-3.238086 0.269877,-4.845859 1.534221,1.588991 3.123899,3.121635 4.632243,4.733166 -1.63404,0.04883 -3.26808,0.06761 -4.90212,0.112693 z"
     id="path3434"
     inkscape:connector-curvature="0"
     style="fill:#0147c1" />
  <path
     d="m 74.970031,39.907447 c 0.247691,-0.0075 0.743079,-0.02255 0.990771,-0.03005 l 0.0038,0.30803 c -0.247692,0.0038 -0.743076,0.01878 -0.987077,0.02255 l -0.0073,-0.300518 z"
     id="path3436"
     inkscape:connector-curvature="0"
     style="fill:#0147c1" />
  <path
     d="m 73.502353,40.2568 c 0.487992,-0.03005 0.979679,-0.04508 1.475067,-0.04883 0.244001,-0.0037 0.739389,-0.01878 0.987081,-0.02255 1.523126,0.02255 3.046262,0.06386 4.569391,0.07513 0.0076,0.266708 0.02214,0.803885 0.0296,1.074351 -1.855852,0.04508 -3.711706,-0.0338 -5.567561,0 l -0.428844,0.01503 c -0.247697,0.01878 -0.746777,0.05635 -0.998168,0.07138 -0.0185,-0.28925 -0.05175,-0.871503 -0.06655,-1.164509 z"
     id="path3438"
     inkscape:connector-curvature="0"
     style="fill:#e07100" />
  <path
     d="m 127.69553,41.688019 c 0.45103,0.293006 0.62108,0.80013 0.80962,1.28096 0.39188,0.589767 0.86139,1.134456 1.14975,1.791841 0.70981,3.091582 0.62477,6.299617 0.0998,9.417495 -0.66175,0.830182 -1.36347,1.08297 -1.99564,1.931935 -0.0591,-0.931607 -0.0487,-1.289577 -0.0562,-2.221183 l -0.0961,-0.01127 c 0.43624,-4.056998 0.0333,-8.125266 0.0887,-12.189777 z"
     id="path3440"
     inkscape:connector-curvature="0"
     style="fill:#ababab"
     sodipodi:nodetypes="cccccccc" />
  <path
     d="m 115.65836,43.442295 c 0.13309,-0.0075 0.39187,-0.03005 0.52127,-0.04132 0.55084,0.300518 1.09798,0.608549 1.6636,0.879015 -0.79853,-0.06762 -1.76343,0.09767 -2.18487,-0.837695 z"
     id="path3442"
     inkscape:connector-curvature="0"
     style="fill:#ababab" />
  <path
     d="m 116.17963,43.400975 -0.16637,-0.09391 c 0.42884,0.0075 1.29024,0.01503 1.72277,0.01877 0.85768,0.293006 1.68209,0.679924 2.52129,1.02552 -0.80222,0.04508 -1.62664,0.150258 -2.41409,-0.07137 -0.56562,-0.270465 -1.11276,-0.578498 -1.6636,-0.879015 z"
     id="path3444"
     inkscape:connector-curvature="0"
     style="fill:#0147c1" />
  <path
     d="m 117.73603,43.325844 c 1.97786,-0.01878 3.9557,-0.161529 5.93356,-0.0601 0.13308,0.379404 0.1146,0.785104 0.20333,1.179535 -1.2052,-0.0075 -2.42519,0.108937 -3.6156,-0.09391 -0.8392,-0.345596 -1.66361,-0.732514 -2.52129,-1.02552 z"
     id="path3446"
     inkscape:connector-curvature="0"
     style="fill:#ababab" />
  <path
     d="m 15.649217,45.140223 c 0.587809,0.150261 0.658051,0.743783 0.831806,1.235883 2.373424,2.678371 1.242166,6.562571 2.014823,9.7969 -1.157136,-0.935363 -2.94275,-1.758033 -2.828145,-3.534848 -0.06655,-2.498059 -0.04066,-4.999874 -0.01849,-7.497935 z"
     id="path3456"
     inkscape:connector-curvature="0"
     style="fill:#ababab" />
  <path
     d="m 116.0872,45.936598 c 2.56197,-0.07137 5.12393,-0.101425 7.6859,-0.09767 0.003,0.311788 0.0111,0.931608 0.0149,1.243396 -2.57305,0.0037 -5.14981,0.04508 -7.71917,-0.06762 0.003,-0.270466 0.0148,-0.807643 0.0186,-1.078109 z"
     id="path3458"
     inkscape:connector-curvature="0"
     style="fill:#ababab" />
  <path
     d="M 3.9854282,46.69165 C 5.2534727,46.68038 6.5178198,46.67662 7.7821666,46.6691 7.6490777,47.0748 7.5196856,47.4805 7.3865964,47.886199 6.3107918,47.863652 5.2386846,47.85615 4.1628806,47.859909 4.1037317,47.46924 4.044579,47.078567 3.9854282,46.691649 Z"
     id="path3462"
     inkscape:connector-curvature="0"
     style="fill:#ababab" />
  <path
     d="m 8.4180381,46.687894 c 1.1312575,-0.01503 2.2588179,-0.04132 3.3863789,-0.07137 0,0.311787 0,0.935362 0,1.24715 -1.142349,0 -2.2810002,-0.0038 -3.4196513,-0.01127 0.00738,-0.289248 0.025881,-0.871503 0.03327,-1.164509 z"
     id="path3464"
     inkscape:connector-curvature="0"
     style="fill:#ababab" />
  <path
     d="m 116.0798,48.558621 c 2.56198,-0.123964 5.12763,-0.08264 7.6933,-0.0864 0.003,0.308031 0.0111,0.927851 0.0149,1.239638 -2.57675,0 -5.15721,0.07512 -7.73026,-0.09391 0.008,-0.266708 0.0186,-0.792617 0.0221,-1.059327 z"
     id="path3466"
     inkscape:connector-curvature="0"
     style="fill:#ababab" />
  <path
     d="m 3.9854282,49.321186 c 1.4565873,-0.03757 2.9131743,-0.157772 4.369761,-0.08264 0.8465955,-0.04132 1.3382857,0.781346 1.9445808,1.235881 -2.0480941,0.09015 -4.0998854,0.01503 -6.1479803,0.02254 -0.055455,-0.394434 -0.1109078,-0.785108 -0.1663615,-1.175782 z"
     id="path3468"
     inkscape:connector-curvature="0"
     style="fill:#ababab" />
  <path
     d="m 9.8598374,49.257327 c 0.7061116,0 1.4159196,0.01503 2.1220316,0.04132 -0.195937,0.356865 -0.04805,1.070595 -0.602598,1.100648 -0.539751,-0.330571 -1.027744,-0.743783 -1.5194336,-1.141969 z"
     id="path3470"
     inkscape:connector-curvature="0"
     style="fill:#ababab" />
  <path
     d="m 3.9817311,51.946966 c 2.6026333,-0.120207 5.2089624,-0.108937 7.8115949,-0.07888 0,0.315543 0,0.946632 0,1.262176 -2.5471783,0.0601 -5.0943572,0 -7.6415363,-0.0075 -0.059149,-0.390655 -0.1146045,-0.785085 -0.1700586,-1.17576 z"
     id="path3472"
     inkscape:connector-curvature="0"
     style="fill:#ababab" />
  <path
     d="m 113.7951,53.791398 c 0.45472,0.02629 0.90944,0.05259 1.36788,0.07512 5.92034,-0.143002 10.80488,-0.100786 13.07454,-0.03005 0.0555,0.66114 -0.26793,1.659094 -0.20138,2.323992 -4.72253,-0.351261 -11.16099,0.131119 -15.16841,-0.157773 0.20701,-0.627332 0.70926,-1.587721 0.92737,-2.211297 z"
     id="path3476"
     inkscape:connector-curvature="0"
     style="fill:#ababab"
     sodipodi:nodetypes="cccccc" />
  <path
     d="m 15.922788,55.113678 c 0.905747,0.642359 1.807796,1.284717 2.683966,1.96464 -0.547145,0.751295 -1.186713,1.495079 -2.170093,1.562695 -2.116138,0.50202 -3.910982,0.587634 -6.14963,0.0011 0.0073,-2.096115 0.830014,0.774996 0.926134,-1.313607 0.846594,-0.07513 3.448954,-0.250249 4.299246,-0.340404 0.136787,-0.623576 0.273573,-1.250908 0.410358,-1.874484 z"
     id="path3490"
     inkscape:connector-curvature="0"
     style="fill:#ababab"
     sodipodi:nodetypes="cccccccc" />
  <path
     d="m 125.32581,56.195545 c 1.26435,-0.702462 2.17748,0.852722 1.85215,1.983421 0.0444,1.175779 -1.63774,1.667878 -2.19597,0.623576 -0.18115,-0.8114 -0.3586,-2.051038 0.34382,-2.606997 z"
     id="path3514"
     inkscape:connector-curvature="0"
     style="fill:#ffffff" />
  <path
     d="m 1.5676414,57.044509 c 3.6377709,0.236658 7.282935,0.05259 10.9244026,0.146503 0.0073,0.687436 0.01848,1.378628 0.02957,2.069821 -0.602598,-0.195337 1.581351,-0.401297 0.938087,-0.416324 -0.658053,0.199094 -1.299735,0.100024 -4.0056849,0.100557 -1.3935884,-0.02842 -0.5493448,-0.06708 -2.167239,0.0041 -3.1232892,-0.23644 -2.5408942,0.300417 -5.7191381,-1.904535 z"
     id="path3520"
     inkscape:connector-curvature="0"
     style="fill:#ababab"
     sodipodi:nodetypes="ccccccc" />
  <path
     d="m 22.111436,57.923525 c 0.946411,-0.03005 1.907613,-0.138989 2.850326,0.03005 0.857687,0.11645 0.820718,1.634068 -0.05914,1.694171 -1.268045,0.424482 -2.658087,-0.3193 -2.791176,-1.724224 z"
     id="path3528"
     inkscape:connector-curvature="0"
     style="fill:#ffffff" />
  <path
     d="m 14.458807,60.290108 c 0.809626,-1.074353 2.414091,-1.183291 3.03887,0.123964 -1.016654,0.06761 -2.037004,0.06011 -3.03887,-0.123964 z"
     id="path3550"
     inkscape:connector-curvature="0"
     style="fill:#ffffff" />
  <path
     d="m 5.183231,62.420031 c 0.1256954,-0.901559 0.2550879,-1.799358 0.388177,-2.693395 0.7245962,0.180311 1.4491933,0.371891 2.1737893,0.570985 -0.03327,0.717483 0.025882,1.536399 -0.4621149,2.12241 -0.5730226,0.616064 -1.4344051,0.165284 -2.0998514,0 z"
     id="path3552"
     inkscape:connector-curvature="0"
     style="fill:#ffffff" />
  <path
     d="m 53.827329,70.575344 c 1.537922,0.755056 1.759735,2.65959 1.948282,4.192234 -0.166364,1.243395 -0.865081,2.344041 -1.245864,3.531097 -1.330891,-0.300526 -2.706149,-0.236665 -4.040736,-0.469564 -0.853989,-0.274227 -1.179318,-1.149486 -1.508344,-1.90078 1.689493,-0.03754 3.382684,0.0075 5.072176,-0.131477 -0.20333,-0.315543 -0.428844,-0.612305 -0.676535,-0.886526 -1.245865,-0.184072 -2.510211,-0.07513 -3.763467,-0.146504 l -0.01109,-0.308035 c 1.456587,-0.02254 2.913175,-0.02254 4.373458,-0.06761 -0.358605,-1.43122 -1.95937,-1.018002 -3.038868,-1.280957 l -0.439935,-0.07512 c 1.072108,-0.135236 2.155302,-0.217878 3.238503,-0.27798 -0.01481,-0.21412 -0.04069,-0.646119 -0.05544,-0.863991 -0.835503,-0.06008 -1.674702,-0.127718 -2.506509,-0.210366 0.776352,-0.18782 1.556402,-0.34935 2.336451,-0.540929 0.07764,-0.138991 0.240302,-0.420725 0.317934,-0.563477 z"
     id="path3554"
     inkscape:connector-curvature="0"
     style="fill:#ababab" />
  <path
     d="m 48.134072,73.486621 c 0.883563,-0.379405 1.863248,-0.375651 2.802266,-0.379405 1.079501,0.262955 2.680266,-0.150263 3.038872,1.280957 -1.460283,0.0451 -2.916873,0.0451 -4.37346,0.06761 -0.587811,-0.01881 -1.988945,0.09392 -1.467678,-0.969167 z"
     id="path3556"
     inkscape:connector-curvature="0"
     style="fill:#0147c1" />
  <path
     d="m 46.592455,75.845688 c -0.03327,-1.671635 1.98155,-1.018009 3.020386,-1.081864 1.253256,0.07136 2.517602,-0.0376 3.763467,0.146504 0.247691,0.274221 0.473205,0.570983 0.676535,0.886526 -1.689492,0.13899 -3.382683,0.09392 -5.072176,0.131477 -0.798536,0.01881 -1.593374,-0.02629 -2.388212,-0.08264 z"
     id="path3558"
     inkscape:connector-curvature="0"
     style="fill:#0147c1" />
</svg>
