<?xml version="1.0" encoding="UTF-8" standalone="no"?>
<svg
   xmlns:dc="http://purl.org/dc/elements/1.1/"
   xmlns:cc="http://creativecommons.org/ns#"
   xmlns:rdf="http://www.w3.org/1999/02/22-rdf-syntax-ns#"
   xmlns:svg="http://www.w3.org/2000/svg"
   xmlns="http://www.w3.org/2000/svg"
   xmlns:sodipodi="http://sodipodi.sourceforge.net/DTD/sodipodi-0.dtd"
   xmlns:inkscape="http://www.inkscape.org/namespaces/inkscape"
   width="159.34113pt"
   height="75.715729pt"
   viewBox="0 0 159.34113 75.715731"
   version="1.1"
   id="svg3336"
   inkscape:version="0.91 r13725"
   sodipodi:docname="SOCO.svg">
  <metadata
     id="metadata3360">
    <rdf:RDF>
      <cc:Work
         rdf:about="">
        <dc:format>image/svg+xml</dc:format>
        <dc:type
           rdf:resource="http://purl.org/dc/dcmitype/StillImage" />
        <dc:title></dc:title>
      </cc:Work>
    </rdf:RDF>
  </metadata>
  <defs
     id="defs3358" />
  <sodipodi:namedview
     pagecolor="#ffffff"
     bordercolor="#666666"
     borderopacity="1"
     objecttolerance="10"
     gridtolerance="10"
     guidetolerance="10"
     inkscape:pageopacity="0"
     inkscape:pageshadow="2"
     inkscape:window-width="1280"
     inkscape:window-height="961"
     id="namedview3356"
     showgrid="false"
     fit-margin-top="0"
     fit-margin-left="0"
     fit-margin-right="0"
     fit-margin-bottom="0"
     inkscape:zoom="1.3917808"
     inkscape:cx="167.07141"
     inkscape:cy="36.402386"
     inkscape:window-x="-8"
     inkscape:window-y="-8"
     inkscape:window-maximized="1"
     inkscape:current-layer="g3362" />
  <g
     id="g3362"
     transform="scale(0.86576622,0.86576622)">
    <g
       id="g3372"
       transform="scale(0.81693621,0.81693621)">
      <path
         d="m 146.41,1.3605893 c 3.62,-1.35999998568 7.92,-2.04999999 11.54,-0.37999999 2.16,1.65999999 4.23,4.20999999 4.27,7.02999999 -1.18,3.0399997 -2.87,5.9099997 -4.94,8.4299997 -1.72,2.24 -6.11,1.77 -6.32,-1.42 0.66,-3.36 4.04,-5.2299997 5.62,-8.1399997 -5.64,-2.36 -11.3,1.13 -16.09,3.8399997 -7.26,4.95 -13.51,11.81 -16.53,20.17 -1.95,5.34 -3.63,11.34 -1.86,16.96 1.01,3.3 4.43,5.22 7.72,5.38 6.67,0.38 13,-2.39 18.71,-5.54 7.89,-4.53 15.07,-10.21 21.76,-16.34 2.94,-2.23 3.18,-6.17 4.97,-9.16 4.59,-9.13 12.12,-17.9099997 22.53,-20.1299997 5.77,-0.76 11.85,-0.41 17.35,1.6 5.15,2.41 9.67,7.3099997 9.98,13.2099997 1.41,12.54 -6.23,24.03 -15.34,31.89 -5.86,5.62 -13.62,9.32 -21.83,9.34 -10.72,1.13 -18.27,-10.59 -17.47,-20.3 -6.93,6.6 -14.75,12.35 -23.36,16.56 -6.63,3.15 -14.18,5.43 -21.53,3.75 -4.76,-1.06 -8.73,-4.88 -9.9,-9.63 -1.27,-5.29 -0.78,-10.92 0.79,-16.1 4.25,-14.34 16.01,-25.9099997 29.93,-31.0199997 z"
         id="path3340"
         inkscape:connector-curvature="0"
         style="fill:#000000" />
      <path
         d="m 78.27,2.5705893 c 5.03,-1.43 10.38,-0.92 15.47,-0.09 7.31,1.24 14.07,7.7099997 14,15.4199997 0.83,9.09 -3.47,17.83 -9.19,24.62 -5.98,6.49 -12.85,13.12 -21.84,14.85 -4.67,0.68 -9.93,1.71 -14.22,-0.9 -7.61,-4.57 -11.08,-14.44 -8.71,-22.9 3.11,-13.05 11.26,-26.4199997 24.49,-30.9999997 z"
         id="path3342"
         inkscape:connector-curvature="0"
         style="fill:#000000" />
      <path
         d="m 13.64,6.7005893 c 8.51,-4.18 18.6,-5.39 27.81,-3.06 1.85,0.59 4.68,1.74 4.07,4.19 -1.19,4.5899997 -5.24,8.4699997 -9.96,9.2199997 -0.13,-2.74 1.38,-5.03 2.82,-7.2099997 -6.8,-2.92 -14.76,-1.91 -21.34,1.1199997 -2.58,1.25 -5.6,3.61 -4.91,6.86 1.45,3.18 4.93,4.7 7.91,6.16 7.05,3.33 14.9,4.59 21.85,8.14 3.36,1.58 5.6,5.13 5.38,8.86 0.2,4.28 -3.22,7.55 -6.48,9.77 -6.84,4.3 -14.79,6.59 -22.73,7.77 -6.19,0.82 -13.28,-0.01 -18.06,-4.38 0.25,-0.97 0.73,-2.9 0.98,-3.87 4.3,1.14 8.5,3.3 13.07,2.77 7.14,-0.57 14.29,-2.17 20.71,-5.4 2.45,-1.36 5.29,-2.94 6.11,-5.82 0.3,-2.66 -2.13,-4.48 -4.22,-5.56 -8.16,-3.93 -17.59,-4.74 -25.31,-9.67 -4.04,-2.52 -7.2,-7.4 -5.92,-12.28 1.49,-3.58 4.96,-5.8099997 8.22,-7.6099997 z"
         id="path3344"
         inkscape:connector-curvature="0"
         style="fill:#000000" />
      <path
         d="m 80.31,7.5705893 c 6.05,-2.04 13.3,-0.3 17.86,4.1499997 3.39,3.19 2.2,8.24 1.88,12.34 -0.69,7.38 -4.97,13.88 -10.14,18.96 -5.09,4.91 -11.79,8.71 -19.02,8.7 -5.71,0.14 -10.51,-5.09 -10.85,-10.61 -0.51,-7.83 2.71,-15.46 7.16,-21.76 3.6,-4.63 7.48,-9.5599997 13.11,-11.7799997 z"
         id="path3346"
         inkscape:connector-curvature="0"
         style="fill:#ffffff" />
      <path
         d="m 199.15,7.1305893 c 5.85,-1.24 12.53,0.48 16.71,4.8599997 2.91,2.93 1.85,7.4 1.72,11.09 -0.5,8.31 -5.44,15.64 -11.48,21.06 -5.2,4.63 -12.03,8.07 -19.15,7.5 -5.56,-0.71 -9.66,-6.22 -9.6,-11.68 0,-7.59 3.13,-14.92 7.55,-20.97 3.78,-4.9 8.03,-10.1399997 14.25,-11.8599997 z"
         id="path3348"
         inkscape:connector-curvature="0"
         style="fill:#ffffff" />
      <path
         d="m 205.07,10.270589 c 3.23,-2.2799997 8.08,0.84 7.53,4.69 -0.24,3.45 -4.6,5.76 -7.51,3.74 -3.2,-1.65 -3.22,-6.79 -0.02,-8.43 z"
         id="path3350"
         inkscape:connector-curvature="0"
         style="fill:#000000" />
      <path
         d="m 88.36,11.450589 c 3.32,-1.16 7.1,1.99 6.39,5.49 -0.39,3.93 -5.92,5.73 -8.51,2.69 -2.66,-2.45 -1.33,-7.3 2.12,-8.18 z"
         id="path3352"
         inkscape:connector-curvature="0"
         style="fill:#000000" />
      <path
         d="m 15.26,74.500589 c 4.49,-5.03 9.03,-10.01 13.96,-14.63 0.63,1.41 1.26,2.82 1.9,4.22 -1.86,1.74 -3.69,3.51 -5.51,5.3 13.69,9.59 28.08,18.44 43.84,24.23 19.53,7.370001 40.64,9.750001 61.41,8.930001 20.6,-0.54 41.29,-4.860001 59.7,-14.320001 -0.82,-0.65 -1.66,-1.3 -2.48,-1.95 0.54,-1.45 1.09,-2.89 1.66,-4.33 4.49,4.09 9.08,8.08 13.27,12.49 -1.4,0.65 -2.79,1.29 -4.18,1.95 -1.65,-1.69 -3.31,-3.37 -4.98,-5.03 -14.32,7.34 -29.85,12.430001 -45.88,14.240001 -27.06,3.2 -55.26,1.47 -80.73,-8.810001 -15.7,-6.21 -30.02,-15.37 -43.72,-25.13 -1.19,1.32 -2.39,2.64 -3.56,3.97 -1.57,-0.37 -3.14,-0.75 -4.7,-1.13 z"
         id="path3354"
         inkscape:connector-curvature="0"
         style="fill:#000000" />
    </g>
  </g>
</svg>
