<?xml version="1.0" encoding="UTF-8" standalone="no"?>
<svg
   xmlns:dc="http://purl.org/dc/elements/1.1/"
   xmlns:cc="http://creativecommons.org/ns#"
   xmlns:rdf="http://www.w3.org/1999/02/22-rdf-syntax-ns#"
   xmlns:svg="http://www.w3.org/2000/svg"
   xmlns="http://www.w3.org/2000/svg"
   xmlns:sodipodi="http://sodipodi.sourceforge.net/DTD/sodipodi-0.dtd"
   xmlns:inkscape="http://www.inkscape.org/namespaces/inkscape"
   width="97.18647"
   height="109.8873"
   id="svg2"
   version="1.1"
   inkscape:version="0.91 r13725"
   sodipodi:docname="tvcal.svg">
  <metadata
     id="metadata226">
    <rdf:RDF>
      <cc:Work
         rdf:about="">
        <dc:format>image/svg+xml</dc:format>
        <dc:type
           rdf:resource="http://purl.org/dc/dcmitype/StillImage" />
        <dc:title></dc:title>
      </cc:Work>
    </rdf:RDF>
  </metadata>
  <defs
     id="defs224" />
  <sodipodi:namedview
     pagecolor="#ffffff"
     bordercolor="#666666"
     borderopacity="1"
     objecttolerance="10"
     gridtolerance="10"
     guidetolerance="10"
     inkscape:pageopacity="0"
     inkscape:pageshadow="2"
     inkscape:window-width="1280"
     inkscape:window-height="961"
     id="namedview222"
     showgrid="false"
     inkscape:zoom="3.7083822"
     inkscape:cx="28.740007"
     inkscape:cy="92.71558"
     inkscape:window-x="-8"
     inkscape:window-y="-8"
     inkscape:window-maximized="1"
     inkscape:current-layer="svg2"
     fit-margin-top="0"
     fit-margin-left="0"
     fit-margin-right="0"
     fit-margin-bottom="0" />
  <path
     style="fill:#fddd93;stroke:none"
     d="M 26.163643,0 27.471825,1.3081821 26.163643,0 Z"
     id="path6"
     inkscape:connector-curvature="0" />
  <path
     style="fill:#ffc543;stroke:none"
     d="M 27.471825,0 28.780007,1.3081821 27.471825,0 Z"
     id="path8"
     inkscape:connector-curvature="0" />
  <path
     style="fill:#fde3ab;stroke:none"
     d="M 28.780007,0 30.088189,1.3081821 28.780007,0 Z"
     id="path10"
     inkscape:connector-curvature="0" />
  <path
     style="fill:#fddf97;stroke:none"
     d="m 16.134203,2.1802948 c -0.0726,0.07267 -0.145339,1.4535604 0.436148,0.8721389 0.0726,-0.072669 0.145339,-1.4535604 -0.436148,-0.8721389 z"
     id="path12"
     inkscape:connector-curvature="0" />
  <path
     style="fill:#fdaf03;stroke:none"
     d="M 17.006368,1.3081821 18.31455,7.849093 C 19.512452,4.8396852 19.464834,3.4315972 17.006368,1.3081821 Z"
     id="path14"
     inkscape:connector-curvature="0" />
  <path
     style="fill:#fdb513;stroke:none"
     d="m 26.163643,1.3081821 0,6.5409109 3.924546,-6.5409109 -3.924546,0 z"
     id="path16"
     inkscape:connector-curvature="0" />
  <path
     style="fill:#fde5b1;stroke:none"
     d="M 28.780007,2.6163643 30.088189,3.9245464 28.780007,2.6163643 Z"
     id="path18"
     inkscape:connector-curvature="0" />
  <path
     style="fill:#fde9b9;stroke:none"
     d="M 27.471825,3.9245464 28.780007,5.232729 27.471825,3.9245464 Z"
     id="path20"
     inkscape:connector-curvature="0" />
  <path
     style="fill:#fddf99;stroke:none"
     d="M 19.622732,6.540911 20.930914,7.849093 19.622732,6.540911 Z"
     id="path22"
     inkscape:connector-curvature="0" />
  <path
     style="fill:#fbd57d;stroke:none"
     d="m 24.855461,6.540911 0,2.616364 2.616364,0 C 26.758866,7.018266 26.9946,7.254001 24.855461,6.540911 Z"
     id="path24"
     inkscape:connector-curvature="0" />
  <path
     style="fill:#ffc33f;stroke:none"
     d="m 19.186715,8.28511 c -0.581487,0.581487 0.79943,0.508752 0.872034,0.436148 0.581487,-0.581487 -0.79943,-0.508752 -0.872034,-0.436148 z"
     id="path26"
     inkscape:connector-curvature="0" />
  <path
     style="fill:#ffa101;stroke:none"
     d="m 19.622732,9.157275 0,3.924546 c 0.910626,-2.032522 0.910626,-1.892023 0,-3.924546 m 5.232729,0 0,3.924546 c 0.910625,-2.032522 0.910625,-1.892023 0,-3.924546 z"
     id="path28"
     inkscape:connector-curvature="0" />
  <path
     style="fill:#fbd57d;stroke:none"
     d="m 20.930914,11.773639 -1.308182,2.616364 c 1.651842,-1.270637 1.820859,-0.907485 1.308182,-2.616364 z"
     id="path30"
     inkscape:connector-curvature="0" />
  <path
     style="fill:#fbd57f;stroke:none"
     d="m 23.547278,11.773639 1.308183,1.308182 -1.308183,-1.308182 z"
     id="path32"
     inkscape:connector-curvature="0" />
  <path
     style="fill:#ffa301;stroke:none"
     d="m 20.930914,13.081821 0,3.924547 c 0.910626,-2.032523 0.910626,-1.892024 0,-3.924547 m 2.616364,0 0,3.924547 c 0.910626,-2.032523 0.910626,-1.892024 0,-3.924547 z"
     id="path34"
     inkscape:connector-curvature="0" />
  <path
     style="fill:#fbd57d;stroke:none"
     d="m 24.855461,13.081821 1.308182,1.308182 -1.308182,-1.308182 z"
     id="path36"
     inkscape:connector-curvature="0" />
  <path
     style="fill:#fbdd9b;stroke:none"
     d="m 22.239096,15.698186 1.308182,1.308182 -1.308182,-1.308182 z"
     id="path38"
     inkscape:connector-curvature="0" />
  <path
     style="fill:#fdc33d;stroke:none"
     d="m 20.930914,17.006368 c 1.633135,0.895843 2.025589,0.979567 3.924547,1.308182 -1.633004,-0.895843 -2.02559,-0.979567 -3.924547,-1.308182 z"
     id="path40"
     inkscape:connector-curvature="0" />
  <path
     style="fill:#ffe7b1;stroke:none"
     d="M 1.3081821,18.31455 2.6163643,19.622732 1.3081821,18.31455 Z"
     id="path42"
     inkscape:connector-curvature="0" />
  <path
     style="fill:#e19901;stroke:none"
     d="M 1.3081821,22.239096 C 8.2212314,19.309815 14.849045,19.622732 22.239096,19.622732 16.389821,17.168321 5.0290838,16.499709 1.3081821,22.239096 Z"
     id="path44"
     inkscape:connector-curvature="0" />
  <path
     style="fill:#ffaf01;stroke:none"
     d="M 2.6163643,83.723656 C 8.2909313,82.372697 13.816366,82.415474 19.622732,82.415474 17.603553,89.279768 8.5138717,98.52953 17.006368,103.34639 c -0.71309,-2.13914 -0.477225,-1.90328 -2.616365,-2.61637 2.08642,-2.1114 4.38398,-4.17637 6.157352,-6.573219 C 29.60704,81.911693 13.359025,77.10988 9.2743703,68.000223 5.6925153,60.01207 7.8313931,47.844276 7.8490928,39.245464 7.856,35.8905 7.4791389,32.046407 9.1936162,29.008154 12.748483,22.708472 19.777228,22.252178 26.163643,22.239096 l 39.245464,0 c 6.033074,0.01007 12.553446,-0.158421 16.105946,5.663775 4.819735,7.898934 3.785486,28.70374 1.588787,37.506236 -1.38458,5.548654 -4.236156,9.842762 -4.612912,15.698185 2.592686,0.120876 6.197774,0.851496 8.36988,-1.011355 3.046102,-2.61244 2.094007,-8.529479 2.095577,-12.070466 l 0,-30.088189 c 0,-4.021614 2.012638,-14.27907 -1.011356,-17.303194 -2.331965,-2.331835 -7.816519,-1.045369 -10.762283,-1.016458 -9.155444,0.09013 -18.315858,0.0051 -27.471825,0.0051 -10.887738,0 -21.844679,-0.576254 -32.704553,-0.09785 -3.85469,0.169671 -9.2780989,-0.818268 -12.6659505,1.442402 -4.49498576,2.9994 -3.0322354,11.056755 -3.0322354,15.661818 0,14.714302 -2.8683986,32.96475 1.3081822,47.094556 z"
     id="path46"
     inkscape:connector-curvature="0" />
  <path
     style="fill:#e19301;stroke:none"
     d="m 23.547278,18.31455 c 6.174489,2.590985 14.285088,1.308182 20.930914,1.308182 l 41.861829,0 C 80.165532,17.031746 72.054933,18.31455 65.409107,18.31455 l -41.861829,0 z"
     id="path48"
     inkscape:connector-curvature="0" />
  <path
     style="fill:#f1a707;stroke:none"
     d="M 0,20.930914 0,79.79911 C 2.0303248,74.960537 1.3081821,69.311152 1.3081821,64.100924 l 0,-26.163642 C 1.3081821,32.364033 2.1730344,26.109484 0,20.930914 Z"
     id="path50"
     inkscape:connector-curvature="0" />
  <path
     style="fill:#ffc113;stroke:none"
     d="m 14.390003,22.239096 c 4.838574,2.030299 10.487958,1.308182 15.698186,1.308182 l 30.088189,0 c 8.173653,0 16.372946,-0.630151 20.69675,7.855111 4.7678,9.356642 1.542346,26.279155 1.542346,36.623082 2.173022,-5.17857 1.308182,-11.432989 1.308182,-17.006368 0,-7.30502 2.182833,-19.096581 -2.915153,-25.111864 C 76.58386,20.922411 68.600809,22.239096 62.792742,22.239096 l -48.402739,0 z"
     id="path52"
     inkscape:connector-curvature="0" />
  <path
     style="fill:#df8701;stroke:none"
     d="m 88.956385,22.239096 0,57.560014 c 2.030299,-4.838573 1.308182,-10.487958 1.308182,-15.698186 l 0,-26.163642 c 0,-5.210228 0.722117,-10.859612 -1.308182,-15.698186 z"
     id="path54"
     inkscape:connector-curvature="0" />
  <path
     style="fill:#ffcb27;stroke:none"
     d="m 13.081821,23.547278 c 6.174489,2.590986 14.285088,1.308183 20.930914,1.308183 l 41.861829,0 C 69.700075,22.264475 61.589476,23.547278 54.94365,23.547278 l -41.861829,0 z"
     id="path56"
     inkscape:connector-curvature="0" />
  <path
     style="fill:#f3f3f1;stroke:none"
     d="m 91.572749,23.547278 0,40.553646 c 0,5.499075 1.292877,12.903778 -2.658749,17.367688 -3.691167,4.169831 -9.301175,3.559302 -14.347618,3.563227 4.043721,7.333145 18.992711,7.815865 21.671868,-1.365743 1.7268,-5.917954 0.567228,-13.448897 0.567228,-19.565172 0,-13.408081 1.14636,-27.332634 -1.308182,-40.553646 l -3.924547,0 z"
     id="path58"
     inkscape:connector-curvature="0" />
  <path
     style="fill:#ffdf37;stroke:none"
     d="m 11.773639,24.855461 c 6.174489,2.590985 14.285087,1.308182 20.930914,1.308182 l 44.478193,0 C 71.008257,23.572657 62.897659,24.855461 56.251832,24.855461 l -44.478193,0 z"
     id="path60"
     inkscape:connector-curvature="0" />
  <path
     style="fill:#ffc327;stroke:none"
     d="m 9.1572749,26.163643 c -3.6235206,12.258844 -2.9567009,32.059227 0,44.478192 1.2793101,-4.159234 0.056893,-8.700327 0.00505,-13.081821 C 9.0372492,46.988986 8.1124299,36.209173 11.773639,26.163643 l -2.6163641,0 z"
     id="path62"
     inkscape:connector-curvature="0" />
  <path
     style="fill:#a5955b;stroke:none"
     d="m 11.773639,26.163643 1.308182,1.308182 -1.308182,-1.308182 z"
     id="path64"
     inkscape:connector-curvature="0" />
  <path
     style="fill:#7591b7;stroke:none"
     d="m 10.465457,40.553646 c 1.516235,-3.570683 1.124003,-8.277392 4.340418,-10.984282 3.064024,-2.578558 7.633766,-2.089821 11.357768,-2.097539 l 27.471824,0 c -8.407294,-3.527906 -21.006919,-1.326889 -30.088189,-1.308182 -3.478979,0.0072 -8.274906,-0.611314 -10.984282,2.097539 -2.9488123,2.94825 -2.094609,8.507893 -2.097539,12.292464 z"
     id="path66"
     inkscape:connector-curvature="0" />
  <path
     style="fill:#456195;stroke:none"
     d="m 53.635467,26.163643 c 5.9156,2.482275 16.834996,-1.497607 21.398328,3.405721 3.230033,3.470869 0.843777,13.024654 0.840769,17.525193 C 78.696182,42.964364 81.309014,29.831655 75.458693,26.953 69.88636,24.21105 59.763908,26.163643 53.635467,26.163643 Z"
     id="path68"
     inkscape:connector-curvature="0" />
  <path
     style="fill:#ab9b5f;stroke:none"
     d="m 77.182746,26.163643 1.308182,1.308182 -1.308182,-1.308182 z"
     id="path70"
     inkscape:connector-curvature="0" />
  <path
     style="fill:#a59559;stroke:none"
     d="m 10.465457,27.471825 1.308182,1.308182 -1.308182,-1.308182 z"
     id="path72"
     inkscape:connector-curvature="0" />
  <path
     style="fill:#9db7d1;stroke:none"
     d="m 14.390003,27.471825 c 5.51595,2.314566 12.373964,1.308182 18.31455,1.308182 -5.51595,-2.314567 -12.373964,-1.308182 -18.31455,-1.308182 z"
     id="path74"
     inkscape:connector-curvature="0" />
  <path
     style="fill:#7f9dd9;stroke:none"
     d="m 32.704553,27.471825 c 7.582224,3.18163 19.208823,2.61087 27.471825,2.616364 -7.249684,7.947206 -18.134151,14.072115 -26.732963,20.597851 -4.354285,3.304468 -9.362398,3.9443 -11.204319,9.490338 -2.457027,0.230109 -4.185398,0.573245 -6.54091,1.308182 l -1.308183,-3.924546 c -3.818819,9.431993 5.526808,9.29555 11.656557,5.650562 C 41.738074,53.879836 56.546303,42.603437 71.950017,32.704553 67.985833,28.656515 64.283023,29.084421 58.868196,28.557878 50.087677,27.704289 41.539231,27.471825 32.704553,27.471825 Z"
     id="path76"
     inkscape:connector-curvature="0" />
  <path
     style="fill:#5b7bb7;stroke:none"
     d="m 54.94365,27.471825 c 4.454491,1.869261 17.141241,-0.974988 19.070548,4.339371 2.272051,6.258343 -8.675864,11.80255 -12.529638,14.530371 C 46.189164,57.168082 32.546002,67.971835 13.081821,68.025471 22.059483,71.792643 31.410107,66.981672 40.553646,66.717289 43.037884,62.5973 47.079251,60.990067 51.019103,58.293904 58.848704,52.935721 66.924897,44.962351 75.874564,41.861828 76.138032,38.518115 77.723025,33.686867 76.341977,30.50406 73.964225,25.024608 59.832195,27.471825 54.94365,27.471825 Z"
     id="path78"
     inkscape:connector-curvature="0" />
  <path
     style="fill:#ab9d5f;stroke:none"
     d="m 78.490928,27.471825 1.308182,1.308182 -1.308182,-1.308182 z"
     id="path80"
     inkscape:connector-curvature="0" />
  <path
     style="fill:#adc9e9;stroke:none"
     d="m 13.081821,28.780007 0,9.157275 c 3.373802,-6.298766 5.81003,-7.763145 13.081822,-7.849093 C 22.02547,28.351708 17.548478,28.78053 13.081821,28.780007 Z"
     id="path82"
     inkscape:connector-curvature="0" />
  <path
     style="fill:#99b9f7;stroke:none"
     d="m 26.163643,28.780007 c 5.849405,2.454542 13.321742,1.308182 19.622732,1.308182 -8.917224,8.496643 -22.896851,9.855975 -30.088189,20.930914 -1.049162,-4.405826 -1.295755,-8.56179 -1.308183,-13.081821 -2.366292,5.639181 -1.281233,11.625553 1.308183,17.006368 l 2.616364,0 C 25.47894,46.555717 40.502235,37.364036 51.019103,34.012735 46.772482,25.912602 34.030265,28.780007 26.163643,28.780007 Z"
     id="path84"
     inkscape:connector-curvature="0" />
  <path
     style="fill:#6787c5;stroke:none"
     d="m 69.333653,28.780007 c 0.617593,1.852647 1.064468,2.37265 2.616364,3.924546 -7.6649,3.512993 -13.922459,8.80472 -20.930914,13.396701 -5.952229,3.900083 -12.39568,6.738446 -18.09242,11.088283 -3.877714,2.960808 -11.282156,10.638268 -16.812626,7.937002 -6.074165,-2.966957 -4.340418,-18.993496 -4.340418,-24.572893 -3.3771766,8.048198 -1.066286,19.034704 0,27.471825 20.30194,-0.0022 33.608769,-9.274881 49.710921,-20.746199 4.722669,-3.364383 22.239489,-16.090248 7.849093,-18.499265 z"
     id="path86"
     inkscape:connector-curvature="0" />
  <path
     style="fill:#45577b;stroke:none"
     d="m 78.490928,28.780007 0,13.081821 c 1.760421,-4.19534 1.760421,-8.886481 0,-13.081821 z"
     id="path88"
     inkscape:connector-curvature="0" />
  <path
     style="fill:#ffdd3d;stroke:none"
     d="m 79.79911,28.780007 0,39.245464 c 3.132835,-7.465796 1.308705,-18.113482 1.308182,-26.163643 -2.61e-4,-4.472151 0.429476,-8.94064 -1.308182,-13.081821 z"
     id="path90"
     inkscape:connector-curvature="0" />
  <path
     style="fill:#ffd937;stroke:none"
     d="m 9.1572749,30.088189 0,36.6291 c 3.4070291,-8.119363 3.4070291,-28.509737 0,-36.6291 z"
     id="path92"
     inkscape:connector-curvature="0" />
  <path
     style="fill:#8ba5d1;stroke:none"
     d="m 11.773639,30.088189 c 0,8.947312 -1.238717,18.855352 1.308182,27.471825 2.367941,-6.066826 1.234139,-21.413241 -1.308182,-27.471825 z"
     id="path94"
     inkscape:connector-curvature="0" />
  <path
     style="fill:#b3d3ff;stroke:none"
     d="M 15.698186,43.17001 C 22.277818,40.675176 27.631031,37.37581 28.780007,30.088189 18.117799,30.089366 12.87573,31.277588 15.698186,43.17001 Z"
     id="path96"
     inkscape:connector-curvature="0" />
  <path
     style="fill:#a7c7ff;stroke:none"
     d="m 28.780007,30.088189 c -1.606709,5.602421 -6.775599,11.84886 -13.081821,10.465457 -1.55399,3.730805 -1.130793,6.619925 0,10.465457 4.823921,-5.43602 10.840251,-9.553131 17.233468,-13.004115 4.50878,-2.433742 9.892996,-3.664087 12.854721,-7.926799 l -17.006368,0 z"
     id="path98"
     inkscape:connector-curvature="0" />
  <path
     style="fill:#8fafeb;stroke:none"
     d="m 48.402739,30.088189 2.616364,3.924546 c -13.74991,2.658881 -23.175362,16.640208 -36.6291,19.622732 l 1.308183,5.232729 C 24.8985,54.29139 33.304093,47.570081 41.861828,41.861828 46.862485,38.526225 51.808984,36.027205 53.635467,30.088189 l -5.232728,0 z"
     id="path100"
     inkscape:connector-curvature="0" />
  <path
     style="fill:#87a7e3;stroke:none"
     d="m 53.635467,30.088189 c -4.73418,9.265592 -17.713309,14.807183 -26.163642,20.498952 -4.169569,2.808275 -8.014186,6.351094 -13.081822,6.972873 0,2.350541 0.01871,1.990399 1.308183,3.924546 l 6.54091,-1.308182 c 2.639519,-4.88122 6.859192,-5.6486 11.204319,-8.677826 7.867407,-5.484684 21.754284,-13.316378 26.732963,-21.410363 l -6.540911,0 z"
     id="path102"
     inkscape:connector-curvature="0" />
  <path
     style="fill:#ffc125;stroke:none"
     d="m 81.107292,31.396371 c 0,14.259447 2.578689,29.443517 -5.232728,41.861828 2.480051,-0.948824 4.406088,-1.589833 5.575864,-4.223335 1.520239,-3.422204 0.963607,-7.830124 0.965046,-11.47485 0.0031,-8.048722 1.823868,-18.699417 -1.308182,-26.163643 z"
     id="path104"
     inkscape:connector-curvature="0" />
  <path
     style="fill:#5371af;stroke:none"
     d="m 40.553646,66.717289 c 9.561896,-0.526805 17.191606,-8.355752 24.854414,-13.617784 4.904637,-3.367915 9.153089,-5.159993 10.466504,-11.237677 -9.407007,1.955994 -18.300029,11.025228 -26.162596,16.432076 -3.78601,2.603413 -7.557499,4.012587 -9.158322,8.423385 z"
     id="path106"
     inkscape:connector-curvature="0" />
  <path
     style="fill:#374b6f;stroke:none"
     d="m 78.490928,41.861828 -1.308182,11.773639 2.616364,0 c -0.0022,-4.089246 0.278512,-7.993385 -1.308182,-11.773639 z"
     id="path108"
     inkscape:connector-curvature="0" />
  <path
     style="fill:#395793;stroke:none"
     d="m 77.182746,44.478192 c -4.584786,8.64957 -19.071333,19.661847 -28.780007,21.842456 -6.083963,1.366396 -12.237521,-0.09144 -18.31455,1.704823 3.762724,1.578845 7.692634,1.352006 11.773639,1.30308 13.694182,-0.163784 40.826926,-5.064758 35.320918,-24.850359 z"
     id="path110"
     inkscape:connector-curvature="0" />
  <path
     style="fill:#4967a5;stroke:none"
     d="m 74.566382,45.786375 c -8.084958,7.395807 -18.654678,12.941061 -27.471825,19.622732 7.170277,2.269565 17.957808,-7.527542 23.469572,-11.825182 2.966434,-2.312866 4.757859,-4.143798 4.002253,-7.79755 z"
     id="path112"
     inkscape:connector-curvature="0" />
  <path
     style="fill:#2d4985;stroke:none"
     d="m 75.874564,51.019103 c -1.571781,14.07447 -14.856894,14.905951 -26.163643,17.006368 5.400307,2.266033 20.9334,2.346094 25.374286,-2.097539 3.436202,-3.438295 2.460821,-10.925545 0.789357,-14.908829 z"
     id="path114"
     inkscape:connector-curvature="0" />
  <path
     style="fill:#233b6b;stroke:none"
     d="m 77.182746,53.635467 c -0.03859,10.913379 -3.476625,14.351413 -14.390004,14.390004 4.694674,1.969991 13.610851,2.548862 16.217011,-3.06651 1.503886,-3.240498 0.788965,-7.844383 0.789357,-11.323494 l -2.616364,0 z"
     id="path116"
     inkscape:connector-curvature="0" />
  <path
     style="fill:#355393;stroke:none"
     d="m 10.465457,62.792742 c 0.792785,10.175172 10.324828,7.849093 18.31455,7.849093 -7.550042,-3.168155 -13.071094,-0.0174 -18.31455,-7.849093 z"
     id="path118"
     inkscape:connector-curvature="0" />
  <path
     style="fill:#011759;stroke:none"
     d="m 68.025471,69.333653 c 4.610688,1.929961 8.968766,1.710056 11.773639,-2.616364 -3.99074,1.246305 -7.585756,2.349887 -11.773639,2.616364 z"
     id="path120"
     inkscape:connector-curvature="0" />
  <path
     style="fill:#a99b63;stroke:none"
     d="m 10.465457,69.333653 1.308182,1.308182 -1.308182,-1.308182 z"
     id="path122"
     inkscape:connector-curvature="0" />
  <path
     style="fill:#17377f;stroke:none"
     d="m 28.780007,69.333653 c 5.178701,2.173021 11.429064,1.308182 17.006368,1.308182 -5.178701,-2.173021 -11.429064,-1.308182 -17.006368,-1.308182 z"
     id="path124"
     inkscape:connector-curvature="0" />
  <path
     style="fill:#05276f;stroke:none"
     d="m 45.786375,69.333653 c 6.506898,2.730438 15.224754,1.308182 22.239096,1.308182 -6.506898,-2.730438 -15.224755,-1.308182 -22.239096,-1.308182 z"
     id="path126"
     inkscape:connector-curvature="0" />
  <path
     style="fill:#ffed41;stroke:none"
     d="m 10.465457,70.641835 c 6.500488,2.727691 15.239929,1.308182 22.239096,1.308182 l 44.478193,0 C 70.682258,69.222327 61.942816,70.641835 54.94365,70.641835 l -44.478193,0 z"
     id="path128"
     inkscape:connector-curvature="0" />
  <path
     style="fill:#ffd127;stroke:none"
     d="m 11.773639,71.950017 c 6.174489,2.590986 14.285087,1.308182 20.930914,1.308182 l 43.170011,0 C 69.700075,70.667214 61.589476,71.950017 54.94365,71.950017 l -43.170011,0 z"
     id="path130"
     inkscape:connector-curvature="0" />
  <path
     style="fill:#ffc301;stroke:none"
     d="m 11.773639,73.258199 c 4.795665,3.262214 12.584189,8.876932 10.841952,15.698186 -1.073625,4.203582 -5.312528,7.517595 -8.225588,10.465455 8.790854,8.06887 13.032372,-10.760581 18.594109,-14.908826 4.121428,-3.073967 10.572466,-2.182964 15.41758,-2.091522 13.713804,0.258758 11.746037,13.898778 21.421483,19.555098 8.395913,4.9083 6.746164,-7.800689 5.011646,-11.706005 -1.210331,-2.725336 -2.693547,-5.285579 -4.192986,-7.855111 l 14.390004,0 c -2.314175,-1.018943 -3.971511,-1.193585 -6.540911,-1.308182 0.421235,-3.380604 1.27273,-6.019862 2.616364,-9.157275 -22.161782,4.114364 -46.819446,1.308182 -69.333653,1.308182 z"
     id="path132"
     inkscape:connector-curvature="0" />
  <path
     style="fill:#ffcf5d;stroke:none"
     d="M 0,79.79911 1.3081821,81.107292 0,79.79911 Z"
     id="path134"
     inkscape:connector-curvature="0" />
  <path
     style="fill:#d18f13;stroke:none"
     d="m 87.648203,79.79911 c -1.289475,1.934147 -1.308182,1.574005 -1.308182,3.924546 1.686508,-1.887183 1.832632,-1.613904 1.308182,-3.924546 z"
     id="path136"
     inkscape:connector-curvature="0" />
  <path
     style="fill:#dfaf5b;stroke:none"
     d="m 88.956385,79.79911 1.308182,1.308182 -1.308182,-1.308182 z"
     id="path138"
     inkscape:connector-curvature="0" />
  <path
     style="fill:#c96901;stroke:none"
     d="M 3.9245464,82.415474 C 8.7615106,84.445119 14.411981,83.723656 19.622732,83.723656 14.785729,81.694012 9.1352451,82.415474 3.9245464,82.415474 Z"
     id="path140"
     inkscape:connector-curvature="0" />
  <path
     style="fill:#c97101;stroke:none"
     d="m 32.704553,82.415474 c 7.15471,3.002278 17.135486,1.308182 24.855461,1.308182 -7.15471,-3.002278 -17.135485,-1.308182 -24.855461,-1.308182 z"
     id="path142"
     inkscape:connector-curvature="0" />
  <path
     style="fill:#c96701;stroke:none"
     d="m 70.641835,82.415474 c 4.837004,2.029645 10.487435,1.308182 15.698186,1.308182 -4.837004,-2.029644 -10.487435,-1.308182 -15.698186,-1.308182 z"
     id="path144"
     inkscape:connector-curvature="0" />
  <path
     style="fill:#d7992d;stroke:none"
     d="m 31.396371,83.723656 0,2.616365 c 2.13914,-0.71309 1.903274,-0.477225 2.616364,-2.616365 l -2.616364,0 z"
     id="path146"
     inkscape:connector-curvature="0" />
  <path
     style="fill:#f7f7f7;stroke:none"
     d="m 17.006368,105.96275 c 11.329773,11.55701 16.569696,-8.1781 23.821866,-13.418937 4.864475,-3.515478 12.374225,-2.279246 18.039962,-2.279246 -1.138903,-6.824786 -5.64232,-6.528744 -11.773639,-6.540911 -3.999244,-0.008 -9.203454,-0.776144 -12.803179,1.34455 -7.889777,4.64771 -8.736432,16.284124 -17.28501,20.894544 z"
     id="path148"
     inkscape:connector-curvature="0" />
  <path
     style="fill:#fdffff;stroke:none"
     d="m 71.950017,83.723656 c 0,2.350542 0.01871,1.9904 1.308182,3.924547 4.714035,-2.621728 9.089119,-2.612309 14.390004,-2.616364 -4.837004,-2.029645 -10.487435,-1.308183 -15.698186,-1.308183 z"
     id="path150"
     inkscape:connector-curvature="0" />
  <path
     style="fill:#f3f3f3;stroke:none"
     d="m 5.2327285,85.031839 c 3.316608,5.671623 8.5691165,5.791584 11.7736395,0 l -11.7736395,0 z"
     id="path152"
     inkscape:connector-curvature="0" />
  <path
     style="fill:#db8501;stroke:none"
     d="m 30.524206,85.904004 c -0.0726,0.0726 -0.145339,1.453521 0.436148,0.872034 0.0726,-0.0726 0.145339,-1.453521 -0.436148,-0.872034 z"
     id="path154"
     inkscape:connector-curvature="0" />
  <path
     style="fill:#efefed;stroke:none"
     d="m 20.930914,108.57912 c 9.280767,-1.51043 11.444762,-12.38927 18.588091,-17.530298 4.786769,-3.444836 12.455856,-2.092437 18.041009,-2.092437 -2.604722,-4.017689 -5.82298,-3.894197 -10.465457,-3.9235 -3.648651,-0.02302 -8.21316,-0.589859 -11.494997,1.343503 -6.009788,3.540203 -11.902102,15.956812 -14.668646,22.202732 z"
     id="path156"
     inkscape:connector-curvature="0" />
  <path
     style="fill:#ffe3a1;stroke:none"
     d="m 58.868196,86.340021 1.308182,1.308182 -1.308182,-1.308182 z"
     id="path158"
     inkscape:connector-curvature="0" />
  <path
     style="fill:#edd39b;stroke:none"
     d="m 17.006368,87.648203 1.308182,1.308182 -1.308182,-1.308182 z"
     id="path160"
     inkscape:connector-curvature="0" />
  <path
     style="fill:#d78f01;stroke:none"
     d="m 29.216024,88.520368 c -0.0726,0.0726 -0.145339,1.453521 0.436148,0.872034 0.0726,-0.0726 0.145339,-1.453521 -0.436148,-0.872034 z"
     id="path162"
     inkscape:connector-curvature="0" />
  <path
     style="fill:#ddaf5f;stroke:none"
     d="m 30.088189,87.648203 1.308182,1.308182 -1.308182,-1.308182 z"
     id="path164"
     inkscape:connector-curvature="0" />
  <path
     style="fill:#ffe1a1;stroke:none"
     d="m 73.258199,87.648203 1.308183,1.308182 -1.308183,-1.308182 z"
     id="path166"
     inkscape:connector-curvature="0" />
  <path
     style="fill:#f9cf6d;stroke:none"
     d="m 15.698186,90.264567 1.308182,1.308182 -1.308182,-1.308182 z"
     id="path168"
     inkscape:connector-curvature="0" />
  <path
     style="fill:#cf8d17;stroke:none"
     d="m 27.907842,91.136732 c -0.0726,0.0726 -0.145339,1.453521 0.436148,0.872034 0.0726,-0.0726 0.145339,-1.453521 -0.436148,-0.872034 z"
     id="path170"
     inkscape:connector-curvature="0" />
  <path
     style="fill:#e5b963;stroke:none"
     d="m 28.780007,90.264567 1.308182,1.308182 -1.308182,-1.308182 z"
     id="path172"
     inkscape:connector-curvature="0" />
  <path
     style="fill:#f7cd6f;stroke:none"
     d="m 61.48456,90.264567 1.308182,1.308182 -1.308182,-1.308182 z"
     id="path174"
     inkscape:connector-curvature="0" />
  <path
     style="fill:#fdd789;stroke:none"
     d="m 74.566382,90.264567 1.308182,1.308182 -1.308182,-1.308182 z"
     id="path176"
     inkscape:connector-curvature="0" />
  <path
     style="fill:#efd59b;stroke:none"
     d="m 27.471825,92.880931 1.308182,1.308183 -1.308182,-1.308183 z"
     id="path178"
     inkscape:connector-curvature="0" />
  <path
     style="fill:#fdd787;stroke:none"
     d="m 62.792742,92.880931 1.308182,1.308183 -1.308182,-1.308183 z"
     id="path180"
     inkscape:connector-curvature="0" />
  <path
     style="fill:#ffc74f;stroke:none"
     d="m 75.874564,92.880931 1.308182,1.308183 -1.308182,-1.308183 z"
     id="path182"
     inkscape:connector-curvature="0" />
  <path
     style="fill:#d79105;stroke:none"
     d="m 24.855461,94.189114 0,2.616366 c 2.139139,-0.71309 1.903274,-0.47723 2.616364,-2.616366 l -2.616364,0 z"
     id="path184"
     inkscape:connector-curvature="0" />
  <path
     style="fill:#fde7b7;stroke:none"
     d="m 64.100924,95.4973 1.308183,1.30818 -1.308183,-1.30818 z"
     id="path186"
     inkscape:connector-curvature="0" />
  <path
     style="fill:#f1ab01;stroke:none"
     d="m 77.182746,95.4973 0,5.23272 c 0.929071,-2.30174 0.929071,-2.93098 0,-5.23272 z"
     id="path188"
     inkscape:connector-curvature="0" />
  <path
     style="fill:#ffd783;stroke:none"
     d="m 11.773639,96.80548 1.308182,1.30818 -1.308182,-1.30818 z"
     id="path190"
     inkscape:connector-curvature="0" />
  <path
     style="fill:#d78f01;stroke:none"
     d="m 23.983295,97.67764 c -0.0726,0.0726 -0.145339,1.45352 0.436148,0.87204 0.0726,-0.0726 0.145339,-1.45352 -0.436148,-0.87204 z"
     id="path192"
     inkscape:connector-curvature="0" />
  <path
     style="fill:#dfaf5f;stroke:none"
     d="m 24.855461,96.80548 1.308182,1.30818 -1.308182,-1.30818 z"
     id="path194"
     inkscape:connector-curvature="0" />
  <path
     style="fill:#ffc74f;stroke:none"
     d="m 65.409107,96.80548 1.308182,1.30818 -1.308182,-1.30818 z"
     id="path196"
     inkscape:connector-curvature="0" />
  <path
     style="fill:#e3b563;stroke:none"
     d="m 78.490928,98.11366 0,3.92455 c 0.910626,-2.03253 0.910626,-1.89203 0,-3.92455 z"
     id="path198"
     inkscape:connector-curvature="0" />
  <path
     style="fill:#d7972d;stroke:none"
     d="m 22.239096,99.42184 0,2.61637 c 2.13914,-0.71309 1.903274,-0.47723 2.616365,-2.61637 l -2.616365,0 z"
     id="path200"
     inkscape:connector-curvature="0" />
  <path
     style="fill:#fdd789;stroke:none"
     d="m 66.717289,99.42184 1.308182,1.30818 -1.308182,-1.30818 z"
     id="path202"
     inkscape:connector-curvature="0" />
  <path
     style="fill:#fddf9b;stroke:none"
     d="m 11.773639,100.73002 1.308182,1.30819 -1.308182,-1.30819 z"
     id="path204"
     inkscape:connector-curvature="0" />
  <path
     style="fill:#cd8b13;stroke:none"
     d="m 20.930914,100.73002 c -1.98412,1.25233 -3.059184,1.81471 -5.232728,2.61637 2.828289,1.1996 5.82455,0.94346 5.232728,-2.61637 z"
     id="path206"
     inkscape:connector-curvature="0" />
  <path
     style="fill:#cf8b0f;stroke:none"
     d="m 77.182746,100.73002 -1.308182,2.61637 2.616364,0 c 0,-2.42432 0.392062,-1.76631 -1.308182,-2.61637 z"
     id="path208"
     inkscape:connector-curvature="0" />
  <path
     style="fill:#f1f1f1;stroke:none"
     d="m 81.107292,100.73002 c -2.585753,2.05764 -4.879912,3.81728 -7.849093,5.23273 2.385209,3.6862 4.860551,3.78732 9.157275,3.92455 0.512284,-3.73525 0.692944,-5.96204 -1.308182,-9.15728 z"
     id="path210"
     inkscape:connector-curvature="0" />
  <path
     style="fill:#fdd783;stroke:none"
     d="m 13.081821,102.03821 1.308182,1.30818 -1.308182,-1.30818 z"
     id="path212"
     inkscape:connector-curvature="0" />
  <path
     style="fill:#f1dfb9;stroke:none"
     d="m 14.390003,103.34639 1.308183,1.30818 -1.308183,-1.30818 z"
     id="path214"
     inkscape:connector-curvature="0" />
  <path
     style="fill:#f9cd69;stroke:none"
     d="m 70.641835,103.34639 1.308182,1.30818 -1.308182,-1.30818 z"
     id="path216"
     inkscape:connector-curvature="0" />
  <path
     style="fill:#cb7b01;stroke:none"
     d="m 71.950017,103.34639 c 1.633135,0.89584 2.025589,0.97957 3.924547,1.30818 -1.633004,-0.89584 -2.02559,-0.97957 -3.924547,-1.30818 z"
     id="path218"
     inkscape:connector-curvature="0" />
  <path
     style="fill:#dfad5b;stroke:none"
     d="m 75.874564,103.34639 1.308182,1.30818 -1.308182,-1.30818 z"
     id="path220"
     inkscape:connector-curvature="0" />
</svg>
